<svg width="66" height="53" viewBox="0 0 66 53" fill="none" xmlns="http://www.w3.org/2000/svg">
<path d="M3.06163 21C3.06163 9.40202 12.4636 0 24.0616 0V36H3.06163V21Z" fill="#5E5E5E"/>
<path d="M41.0616 0C52.6596 0 62.0616 9.40202 62.0616 21V36H41.0616V0Z" fill="#393939"/>
<path fill-rule="evenodd" clip-rule="evenodd" d="M40.6716 22.6534C42.7655 20.5706 44.0616 17.6867 44.0616 14.5C44.0616 8.14873 38.9129 3 32.5616 3C26.2103 3 21.0616 8.14873 21.0616 14.5C21.0616 14.8533 21.0776 15.203 21.1088 15.5482L16.0616 25.7778L18.5834 33.4444L22.366 36H45.0616L40.6716 22.6534Z" fill="white"/>
<path d="M0 52V41.312H4.672C5.45067 41.312 6.144 41.392 6.752 41.552C7.36 41.7013 7.84 41.9787 8.192 42.384C8.55467 42.7787 8.736 43.3493 8.736 44.096C8.736 44.5867 8.624 45.0187 8.4 45.392C8.18667 45.7653 7.87733 46.0747 7.472 46.32C7.97333 46.4907 8.37867 46.768 8.688 47.152C9.008 47.536 9.168 48.0533 9.168 48.704C9.168 49.504 8.98667 50.144 8.624 50.624C8.272 51.104 7.77067 51.456 7.12 51.68C6.46933 51.8933 5.712 52 4.848 52H0ZM2.528 45.536H4.752C5.17867 45.536 5.50933 45.44 5.744 45.248C5.98933 45.0453 6.112 44.7787 6.112 44.448C6.112 44.1067 5.98933 43.8453 5.744 43.664C5.50933 43.472 5.17867 43.376 4.752 43.376H2.528V45.536ZM2.528 49.904H4.864C5.408 49.904 5.81333 49.7973 6.08 49.584C6.35733 49.36 6.496 49.0613 6.496 48.688C6.496 48.3147 6.35733 48.0213 6.08 47.808C5.81333 47.5947 5.408 47.488 4.864 47.488H2.528V49.904Z" fill="black"/>
<path d="M12.9388 52C12.2881 52 11.7708 51.9467 11.3868 51.84C11.0028 51.7227 10.7254 51.504 10.5548 51.184C10.3948 50.8533 10.3147 50.3787 10.3147 49.76V41.312H12.7467V49.12C12.7467 49.4933 12.8214 49.7387 12.9707 49.856C13.1201 49.9627 13.3974 50.016 13.8027 50.016H14.4908V52H12.9388Z" fill="black"/>
<path d="M18.0254 52.192C17.524 52.192 17.0654 52.096 16.6494 51.904C16.2334 51.712 15.9027 51.4453 15.6574 51.104C15.412 50.752 15.2894 50.336 15.2894 49.856C15.2894 49.2053 15.5134 48.688 15.9614 48.304C16.42 47.92 17.044 47.632 17.8334 47.44C18.6227 47.248 19.5294 47.1147 20.5534 47.04C20.5534 46.4747 20.4627 46.0747 20.2814 45.84C20.1 45.6053 19.748 45.488 19.2254 45.488C18.8947 45.488 18.6014 45.568 18.3454 45.728C18.1 45.8773 17.9347 46.112 17.8494 46.432L15.8014 45.696C16.068 45.1627 16.5107 44.72 17.1294 44.368C17.7587 44.016 18.5267 43.84 19.4334 43.84C20.564 43.84 21.4334 44.0907 22.0414 44.592C22.6494 45.0933 22.9534 45.9467 22.9534 47.152V48.896C22.9534 49.2373 22.964 49.6053 22.9854 50C23.0067 50.3947 23.0387 50.768 23.0814 51.12C23.124 51.472 23.172 51.7653 23.2254 52H20.9694L20.6814 51.04C20.3827 51.456 20.004 51.7547 19.5454 51.936C19.0974 52.1067 18.5907 52.192 18.0254 52.192ZM18.9214 50.528C19.4014 50.528 19.8014 50.4 20.1214 50.144C20.4414 49.888 20.6014 49.3973 20.6014 48.672V48.48C19.7587 48.5547 19.0814 48.672 18.5694 48.832C18.0574 48.9813 17.8014 49.264 17.8014 49.68C17.8014 49.936 17.908 50.144 18.1214 50.304C18.3347 50.4533 18.6014 50.528 18.9214 50.528Z" fill="black"/>
<path d="M24.5491 52V41.312H26.9811V45.12C27.1625 44.8213 27.4611 44.5333 27.8771 44.256C28.3038 43.9787 28.8211 43.84 29.4291 43.84C30.4531 43.84 31.1518 44.128 31.5251 44.704C31.9091 45.2693 32.1011 46.0907 32.1011 47.168V52H29.6691V47.776C29.6691 47.4027 29.6478 47.0613 29.6051 46.752C29.5625 46.4427 29.4558 46.1973 29.2851 46.016C29.1251 45.824 28.8478 45.728 28.4531 45.728C27.9411 45.728 27.5678 45.9147 27.3331 46.288C27.0985 46.6507 26.9811 47.1947 26.9811 47.92V52H24.5491Z" fill="black"/>
<path d="M38.5534 52.192C38.1267 52.192 37.6787 52.0907 37.2094 51.888C36.7507 51.6853 36.3934 51.3653 36.1374 50.928L35.8334 52H33.7054V41.312H36.1374V45.152C36.3934 44.7147 36.7507 44.3893 37.2094 44.176C37.6787 43.952 38.1267 43.84 38.5534 43.84C39.236 43.84 39.8387 44.0053 40.3614 44.336C40.8947 44.6667 41.3107 45.1413 41.6094 45.76C41.908 46.368 42.0574 47.104 42.0574 47.968C42.0574 48.832 41.908 49.584 41.6094 50.224C41.3107 50.8533 40.8947 51.3387 40.3614 51.68C39.8387 52.0213 39.236 52.192 38.5534 52.192ZM37.7854 50.304C38.2547 50.304 38.66 50.1013 39.0014 49.696C39.3534 49.28 39.5294 48.704 39.5294 47.968C39.5294 47.2427 39.3534 46.688 39.0014 46.304C38.66 45.92 38.2547 45.728 37.7854 45.728C37.3054 45.728 36.8894 45.9093 36.5374 46.272C36.196 46.624 36.0254 47.2053 36.0254 48.016C36.0254 48.8373 36.196 49.424 36.5374 49.776C36.8894 50.128 37.3054 50.304 37.7854 50.304Z" fill="black"/>
<path d="M45.8606 52C45.21 52 44.6926 51.9467 44.3086 51.84C43.9246 51.7227 43.6473 51.504 43.4766 51.184C43.3166 50.8533 43.2366 50.3787 43.2366 49.76V41.312H45.6686V49.12C45.6686 49.4933 45.7433 49.7387 45.8926 49.856C46.042 49.9627 46.3193 50.016 46.7246 50.016H47.4126V52H45.8606Z" fill="black"/>
<path d="M50.9473 52.192C50.4459 52.192 49.9873 52.096 49.5713 51.904C49.1553 51.712 48.8246 51.4453 48.5793 51.104C48.3339 50.752 48.2113 50.336 48.2113 49.856C48.2113 49.2053 48.4352 48.688 48.8833 48.304C49.3419 47.92 49.9659 47.632 50.7552 47.44C51.5446 47.248 52.4512 47.1147 53.4753 47.04C53.4753 46.4747 53.3846 46.0747 53.2033 45.84C53.0219 45.6053 52.6699 45.488 52.1473 45.488C51.8166 45.488 51.5233 45.568 51.2673 45.728C51.0219 45.8773 50.8566 46.112 50.7713 46.432L48.7233 45.696C48.9899 45.1627 49.4326 44.72 50.0513 44.368C50.6806 44.016 51.4486 43.84 52.3553 43.84C53.4859 43.84 54.3552 44.0907 54.9632 44.592C55.5713 45.0933 55.8753 45.9467 55.8753 47.152V48.896C55.8753 49.2373 55.8859 49.6053 55.9072 50C55.9286 50.3947 55.9606 50.768 56.0033 51.12C56.0459 51.472 56.0939 51.7653 56.1473 52H53.8913L53.6032 51.04C53.3046 51.456 52.9259 51.7547 52.4673 51.936C52.0192 52.1067 51.5126 52.192 50.9473 52.192ZM51.8433 50.528C52.3232 50.528 52.7233 50.4 53.0433 50.144C53.3633 49.888 53.5233 49.3973 53.5233 48.672V48.48C52.6806 48.5547 52.0033 48.672 51.4912 48.832C50.9792 48.9813 50.7233 49.264 50.7233 49.68C50.7233 49.936 50.8299 50.144 51.0433 50.304C51.2566 50.4533 51.5233 50.528 51.8433 50.528Z" fill="black"/>
<path d="M57.471 52V41.312H59.903V45.12C60.0843 44.8213 60.383 44.5333 60.799 44.256C61.2257 43.9787 61.743 43.84 62.351 43.84C63.375 43.84 64.0737 44.128 64.447 44.704C64.831 45.2693 65.023 46.0907 65.023 47.168V52H62.591V47.776C62.591 47.4027 62.5697 47.0613 62.527 46.752C62.4843 46.4427 62.3777 46.1973 62.207 46.016C62.047 45.824 61.7697 45.728 61.375 45.728C60.863 45.728 60.4897 45.9147 60.255 46.288C60.0203 46.6507 59.903 47.1947 59.903 47.92V52H57.471Z" fill="black"/>
</svg>
