<svg width="24" height="24" viewBox="0 0 24 24" fill="none" xmlns="http://www.w3.org/2000/svg">
<g clip-path="url(#clip0_77_126)">
<path d="M4.88975 6.22628C5.62816 6.22628 6.22677 5.62768 6.22677 4.88926C6.22677 4.15085 5.62816 3.55225 4.88975 3.55225C4.15134 3.55225 3.55273 4.15085 3.55273 4.88926C3.55273 5.62768 4.15134 6.22628 4.88975 6.22628Z" fill="#000028" stroke="#000028" stroke-miterlimit="10"/>
<path d="M11.9942 6.22628C12.7327 6.22628 13.3313 5.62768 13.3313 4.88926C13.3313 4.15085 12.7327 3.55225 11.9942 3.55225C11.2558 3.55225 10.6572 4.15085 10.6572 4.88926C10.6572 5.62768 11.2558 6.22628 11.9942 6.22628Z" fill="#000028" stroke="#000028" stroke-miterlimit="10"/>
<path d="M19.1105 6.22628C19.8489 6.22628 20.4475 5.62768 20.4475 4.88926C20.4475 4.15085 19.8489 3.55225 19.1105 3.55225C18.372 3.55225 17.7734 4.15085 17.7734 4.88926C17.7734 5.62768 18.372 6.22628 19.1105 6.22628Z" fill="#000028" stroke="#000028" stroke-miterlimit="10"/>
<path d="M4.88975 13.3311C5.62816 13.3311 6.22677 12.7325 6.22677 11.9941C6.22677 11.2557 5.62816 10.6571 4.88975 10.6571C4.15134 10.6571 3.55273 11.2557 3.55273 11.9941C3.55273 12.7325 4.15134 13.3311 4.88975 13.3311Z" fill="#000028" stroke="#000028" stroke-miterlimit="10"/>
<path d="M4.88975 20.4473C5.62816 20.4473 6.22677 19.8487 6.22677 19.1103C6.22677 18.3719 5.62816 17.7733 4.88975 17.7733C4.15134 17.7733 3.55273 18.3719 3.55273 19.1103C3.55273 19.8487 4.15134 20.4473 4.88975 20.4473Z" fill="#000028" stroke="#000028" stroke-miterlimit="10"/>
<path d="M11.9942 13.3313C12.7327 13.3313 13.3313 12.7327 13.3313 11.9942C13.3313 11.2558 12.7327 10.6572 11.9942 10.6572C11.2558 10.6572 10.6572 11.2558 10.6572 11.9942C10.6572 12.7327 11.2558 13.3313 11.9942 13.3313Z" fill="#000028" stroke="#000028" stroke-miterlimit="10"/>
<path d="M11.9942 20.4475C12.7327 20.4475 13.3313 19.8489 13.3313 19.1105C13.3313 18.372 12.7327 17.7734 11.9942 17.7734C11.2558 17.7734 10.6572 18.372 10.6572 19.1105C10.6572 19.8489 11.2558 20.4475 11.9942 20.4475Z" fill="#000028" stroke="#000028" stroke-miterlimit="10"/>
<path d="M19.1105 13.3313C19.8489 13.3313 20.4475 12.7327 20.4475 11.9942C20.4475 11.2558 19.8489 10.6572 19.1105 10.6572C18.372 10.6572 17.7734 11.2558 17.7734 11.9942C17.7734 12.7327 18.372 13.3313 19.1105 13.3313Z" fill="#000028" stroke="#000028" stroke-miterlimit="10"/>
<path d="M19.1105 20.4475C19.8489 20.4475 20.4475 19.8489 20.4475 19.1105C20.4475 18.372 19.8489 17.7734 19.1105 17.7734C18.372 17.7734 17.7734 18.372 17.7734 19.1105C17.7734 19.8489 18.372 20.4475 19.1105 20.4475Z" fill="#000028" stroke="#000028" stroke-miterlimit="10"/>
</g>
<defs>
<clipPath id="clip0_77_126">
<rect width="18" height="18" fill="white" transform="translate(3 3)"/>
</clipPath>
</defs>
</svg>
