<svg width="79" height="48" viewBox="0 0 79 48" fill="none" xmlns="http://www.w3.org/2000/svg">
<path d="M29.4314 0L2.32353 8.14286L12.7794 15.8571L32.5294 14.1429L29.4314 0Z" fill="#48D5A7"/>
<path d="M0 34.7143L6.58333 23.1429L30.2059 33.4286L29.0441 41.5714L0 34.7143Z" fill="#494BFF"/>
<path d="M29.8186 27L10.8431 16.2857L28.2696 30.4286L29.8186 27Z" fill="#FEB602"/>
<path d="M10.0686 22.2857L10.8431 18L28.2696 32.1429L10.0686 22.2857Z" fill="#FF5C58"/>
<path d="M39.0101 12.4505C38.3102 12.4505 37.7159 12.2883 37.2271 11.964C36.7494 11.6397 36.3829 11.1657 36.1273 10.542C35.883 9.90586 35.7608 9.1325 35.7608 8.22193V2.79595H38.2602V7.94128C38.2602 8.6398 38.388 9.17616 38.6435 9.55037C38.899 9.9121 39.31 10.093 39.8766 10.093C40.2209 10.093 40.5264 10.0056 40.7931 9.83102C41.0708 9.65639 41.2818 9.40068 41.4263 9.0639C41.5818 8.72711 41.6595 8.31549 41.6595 7.82902V2.79595H44.159V12.2259H41.9761L41.7762 10.7291C41.5318 11.2405 41.1763 11.6584 40.7097 11.9827C40.2432 12.2945 39.6766 12.4505 39.0101 12.4505Z" fill="black"/>
<path d="M46.3237 12.2259V2.79595H48.5066L48.7065 4.31149C48.962 3.7876 49.3231 3.36973 49.7896 3.0579C50.2562 2.73358 50.8228 2.57143 51.4893 2.57143C52.1891 2.57143 52.7779 2.73982 53.2556 3.07661C53.7333 3.41339 54.0943 3.89986 54.3387 4.53601C54.5942 5.15968 54.7219 5.92681 54.7219 6.83737V12.2259H52.2391V7.09932C52.2391 6.41327 52.1058 5.88315 51.8392 5.50894C51.5837 5.12226 51.1727 4.92892 50.6061 4.92892C50.2729 4.92892 49.9674 5.02248 49.6896 5.20958C49.423 5.38421 49.212 5.63992 49.0564 5.9767C48.9009 6.31349 48.8232 6.71887 48.8232 7.19287V12.2259H46.3237Z" fill="black"/>
<path d="M38.7101 28.1671C38.0103 28.1671 37.4271 28.0424 36.9605 27.7929C36.505 27.5434 36.1662 27.2066 35.944 26.7825C35.733 26.346 35.6274 25.8657 35.6274 25.3418C35.6274 24.7805 35.7496 24.2878 35.994 23.8637C36.2495 23.4272 36.6439 23.0841 37.1771 22.8347C37.7104 22.5727 38.3824 22.4418 39.1934 22.4418H41.2263C41.2263 22.0177 41.1763 21.6684 41.0763 21.394C40.9875 21.1196 40.8375 20.9137 40.6264 20.7765C40.4154 20.6393 40.1265 20.5707 39.7599 20.5707C39.3711 20.5707 39.0434 20.658 38.7768 20.8327C38.5102 21.0073 38.3436 21.2817 38.2769 21.6559H35.8774C35.9329 20.9823 36.1273 20.3961 36.4606 19.8972C36.805 19.3982 37.2604 19.0053 37.827 18.7184C38.3935 18.4315 39.0434 18.2881 39.7766 18.2881C40.5764 18.2881 41.2707 18.4377 41.8595 18.7371C42.4483 19.024 42.9037 19.4481 43.2259 20.0094C43.5591 20.5707 43.7258 21.2692 43.7258 22.105V27.9426H41.6429L41.3429 26.5767C41.2207 26.8137 41.0763 27.032 40.9097 27.2316C40.7431 27.4187 40.5487 27.5871 40.3265 27.7368C40.1043 27.874 39.8599 27.98 39.5933 28.0548C39.3267 28.1297 39.0323 28.1671 38.7101 28.1671ZM39.3267 26.0341C39.5933 26.0341 39.8266 25.9842 40.0265 25.8844C40.2265 25.7847 40.3987 25.6474 40.5431 25.4728C40.6875 25.2982 40.8042 25.0986 40.893 24.8741C40.993 24.6371 41.0652 24.3814 41.1096 24.107V24.0883H39.4933C39.2156 24.0883 38.9823 24.1319 38.7935 24.2192C38.6157 24.2941 38.4824 24.4063 38.3935 24.556C38.3047 24.7057 38.2602 24.8803 38.2602 25.0799C38.2602 25.292 38.3047 25.4728 38.3935 25.6225C38.4935 25.7597 38.6213 25.8657 38.7768 25.9406C38.9434 26.0029 39.1267 26.0341 39.3267 26.0341Z" fill="black"/>
<path d="M48.969 28.1671C48.2691 28.1671 47.6748 28.0049 47.186 27.6806C46.7083 27.3563 46.3417 26.8823 46.0862 26.2586C45.8418 25.6225 45.7196 24.8491 45.7196 23.9386V18.5126H48.2191V23.6579C48.2191 24.3564 48.3469 24.8928 48.6024 25.267C48.8579 25.6287 49.2689 25.8096 49.8355 25.8096C50.1798 25.8096 50.4853 25.7223 50.7519 25.5477C51.0297 25.373 51.2407 25.1173 51.3851 24.7805C51.5407 24.4438 51.6184 24.0321 51.6184 23.5457V18.5126H54.1179V27.9426H51.935L51.7351 26.4458C51.4907 26.9572 51.1352 27.375 50.6686 27.6993C50.202 28.0112 49.6355 28.1671 48.969 28.1671Z" fill="black"/>
<path d="M60.2151 27.9426C59.6041 27.9426 59.0653 27.8365 58.5987 27.6245C58.1322 27.4 57.7711 27.0382 57.5156 26.5393C57.2601 26.0404 57.1324 25.3606 57.1324 24.4999V20.8514H55.6993V18.5126H57.1324L57.399 15.8557H59.6319V18.5126H61.7814V20.8514H59.6319V24.5373C59.6319 24.9115 59.7041 25.1797 59.8485 25.3418C60.004 25.4915 60.2651 25.5664 60.6317 25.5664H61.7814V27.9426H60.2151Z" fill="black"/>
<path d="M63.7029 27.9426V18.5126H65.9191L66.1524 20.2339C66.3746 19.8348 66.6356 19.4918 66.9356 19.2049C67.2355 18.918 67.5799 18.6935 67.9687 18.5313C68.3686 18.3691 68.7963 18.2881 69.2518 18.2881V21.263H68.4186C68.0853 21.263 67.7798 21.3067 67.5021 21.394C67.2355 21.4688 67.0022 21.5998 66.8023 21.7869C66.6134 21.974 66.4634 22.2297 66.3524 22.554C66.2524 22.8659 66.2024 23.2588 66.2024 23.7328V27.9426H63.7029Z" fill="black"/>
<path d="M74.7675 28.1671C73.9011 28.1671 73.1401 27.9675 72.4847 27.5684C71.8293 27.1567 71.3127 26.5892 70.935 25.8657C70.5684 25.1298 70.3851 24.2878 70.3851 23.3398C70.3851 22.3669 70.5684 21.5 70.935 20.7391C71.3016 19.9782 71.8126 19.3795 72.468 18.9429C73.1234 18.5064 73.8844 18.2881 74.7509 18.2881C75.5951 18.2881 76.3339 18.4939 76.9671 18.9055C77.6003 19.3171 78.0946 19.8784 78.4501 20.5894C78.8167 21.288 79 22.0987 79 23.0218C79 23.1465 78.9944 23.29 78.9833 23.4521C78.9833 23.6018 78.9722 23.7577 78.95 23.9199H72.1681V22.2921H76.4505C76.4283 21.7682 76.2561 21.3503 75.934 21.0385C75.6229 20.7142 75.2341 20.552 74.7675 20.552C74.4121 20.552 74.0899 20.6456 73.8011 20.8327C73.5122 21.0198 73.279 21.3004 73.1012 21.6746C72.9346 22.0488 72.8513 22.5228 72.8513 23.0966V23.6579C72.8513 24.0945 72.9235 24.4812 73.0679 24.818C73.2234 25.1547 73.44 25.4167 73.7178 25.6038C74.0066 25.7909 74.3454 25.8844 74.7342 25.8844C75.1008 25.8844 75.4007 25.8034 75.634 25.6412C75.8784 25.4666 76.0673 25.2483 76.2006 24.9864H78.7501C78.5945 25.5851 78.3279 26.1277 77.9502 26.6141C77.5725 27.0881 77.1115 27.4686 76.5672 27.7555C76.0228 28.0299 75.423 28.1671 74.7675 28.1671Z" fill="black"/>
<path d="M35.8441 43.6592V30.1878H38.3436V43.6592H35.8441Z" fill="black"/>
<path d="M44.5468 43.8837C43.7359 43.8837 43.0083 43.6717 42.3639 43.2476C41.7196 42.8235 41.2086 42.2435 40.8309 41.5075C40.4532 40.7591 40.2644 39.9109 40.2644 38.9629C40.2644 37.99 40.4532 37.1356 40.8309 36.3996C41.2086 35.6512 41.7196 35.065 42.3639 34.6409C43.0194 34.2168 43.747 34.0047 44.5468 34.0047C45.3689 34.0047 46.1021 34.2168 46.7464 34.6409C47.3907 35.065 47.9017 35.6512 48.2794 36.3996C48.6571 37.1356 48.8459 37.9838 48.8459 38.9442C48.8459 39.9047 48.6571 40.7591 48.2794 41.5075C47.9017 42.2435 47.3907 42.8235 46.7464 43.2476C46.1021 43.6717 45.3689 43.8837 44.5468 43.8837ZM44.5468 41.4514C44.8801 41.4514 45.1745 41.3578 45.43 41.1707C45.6966 40.9836 45.9077 40.703 46.0632 40.3288C46.2187 39.9546 46.2965 39.4931 46.2965 38.9442C46.2965 38.3954 46.2187 37.9339 46.0632 37.5597C45.9077 37.1855 45.7021 36.9048 45.4466 36.7177C45.1911 36.5306 44.8968 36.437 44.5635 36.437C44.2302 36.437 43.9303 36.5306 43.6637 36.7177C43.4082 36.9048 43.2027 37.1855 43.0471 37.5597C42.8916 37.9339 42.8139 38.3954 42.8139 38.9442C42.8139 39.4931 42.8916 39.9546 43.0471 40.3288C43.2027 40.703 43.4082 40.9836 43.6637 41.1707C43.9303 41.3578 44.2247 41.4514 44.5468 41.4514Z" fill="black"/>
<path d="M53.8633 48C53.0412 48 52.3302 47.8877 51.7304 47.6632C51.1305 47.4512 50.6639 47.1269 50.3307 46.6903C50.0085 46.2537 49.8474 45.7049 49.8474 45.0438C49.8474 44.5698 49.9585 44.127 50.1807 43.7153C50.414 43.3037 50.7417 42.942 51.1638 42.6301C51.586 42.3058 52.0914 42.0377 52.6802 41.8256L53.5133 43.2476C53.0245 43.4097 52.658 43.6218 52.4136 43.8837C52.1803 44.1457 52.0636 44.4388 52.0636 44.7631C52.0636 45.0126 52.1414 45.2246 52.2969 45.3993C52.4524 45.5739 52.6635 45.7049 52.9301 45.7922C53.2078 45.8795 53.5133 45.9232 53.8466 45.9232C54.1688 45.9232 54.4465 45.8795 54.6798 45.7922C54.9242 45.7049 55.113 45.5739 55.2463 45.3993C55.3907 45.2371 55.4629 45.0375 55.4629 44.8005C55.4629 44.4887 55.3685 44.2392 55.1797 44.0521C54.9908 43.865 54.602 43.7465 54.0132 43.6966C53.4689 43.6467 52.9746 43.5781 52.5302 43.4908C52.097 43.391 51.7082 43.2725 51.3638 43.1353C51.0305 42.9981 50.7417 42.8484 50.4973 42.6863C50.2529 42.5241 50.064 42.362 49.9307 42.1998V41.7695L51.7637 39.5055L53.48 40.1043L51.2638 42.6301L52.0303 41.2082C52.1414 41.283 52.258 41.3578 52.3802 41.4327C52.5024 41.4951 52.6524 41.5512 52.8301 41.6011C53.0079 41.651 53.2301 41.7009 53.4967 41.7508C53.7633 41.7882 54.1077 41.8318 54.5298 41.8817C55.2519 41.9566 55.8462 42.1125 56.3128 42.3495C56.7904 42.574 57.1404 42.8859 57.3625 43.285C57.5958 43.6842 57.7125 44.1706 57.7125 44.7444C57.7125 45.3057 57.5736 45.8358 57.2959 46.3348C57.0182 46.8337 56.596 47.2329 56.0295 47.5322C55.4629 47.8441 54.7409 48 53.8633 48ZM53.8799 40.9275C53.1801 40.9275 52.5746 40.7716 52.0636 40.4598C51.5526 40.1479 51.1583 39.7363 50.8806 39.2249C50.6028 38.701 50.464 38.1147 50.464 37.4661C50.464 36.83 50.6028 36.2562 50.8806 35.7448C51.1583 35.2209 51.5526 34.803 52.0636 34.4912C52.5746 34.1669 53.1801 34.0047 53.8799 34.0047C54.5909 34.0047 55.2019 34.1669 55.7129 34.4912C56.2239 34.803 56.6127 35.2209 56.8793 35.7448C57.1459 36.2562 57.2792 36.83 57.2792 37.4661C57.2792 38.1147 57.1459 38.701 56.8793 39.2249C56.6127 39.7363 56.2239 40.1479 55.7129 40.4598C55.2019 40.7716 54.5909 40.9275 53.8799 40.9275ZM53.8799 38.8132C54.2576 38.8132 54.5687 38.701 54.8131 38.4765C55.0575 38.2519 55.1797 37.9214 55.1797 37.4848C55.1797 37.0482 55.0575 36.7177 54.8131 36.4932C54.5687 36.2687 54.2576 36.1564 53.8799 36.1564C53.5022 36.1564 53.1856 36.2687 52.9301 36.4932C52.6857 36.7177 52.5635 37.0482 52.5635 37.4848C52.5635 37.9214 52.6857 38.2519 52.9301 38.4765C53.1856 38.701 53.5022 38.8132 53.8799 38.8132ZM55.2796 36.1564L54.913 34.2292H58.3957V35.8196L55.2796 36.1564Z" fill="black"/>
<path d="M63.9927 43.8837C63.1817 43.8837 62.4541 43.6717 61.8098 43.2476C61.1655 42.8235 60.6545 42.2435 60.2768 41.5075C59.8991 40.7591 59.7102 39.9109 59.7102 38.9629C59.7102 37.99 59.8991 37.1356 60.2768 36.3996C60.6545 35.6512 61.1655 35.065 61.8098 34.6409C62.4652 34.2168 63.1928 34.0047 63.9927 34.0047C64.8147 34.0047 65.5479 34.2168 66.1922 34.6409C66.8365 35.065 67.3475 35.6512 67.7253 36.3996C68.1029 37.1356 68.2918 37.9838 68.2918 38.9442C68.2918 39.9047 68.1029 40.7591 67.7253 41.5075C67.3475 42.2435 66.8365 42.8235 66.1922 43.2476C65.5479 43.6717 64.8147 43.8837 63.9927 43.8837ZM63.9927 41.4514C64.326 41.4514 64.6203 41.3578 64.8758 41.1707C65.1424 40.9836 65.3535 40.703 65.509 40.3288C65.6646 39.9546 65.7423 39.4931 65.7423 38.9442C65.7423 38.3954 65.6646 37.9339 65.509 37.5597C65.3535 37.1855 65.148 36.9048 64.8925 36.7177C64.637 36.5306 64.3426 36.437 64.0093 36.437C63.6761 36.437 63.3761 36.5306 63.1095 36.7177C62.854 36.9048 62.6485 37.1855 62.493 37.5597C62.3375 37.9339 62.2597 38.3954 62.2597 38.9442C62.2597 39.4931 62.3375 39.9546 62.493 40.3288C62.6485 40.703 62.854 40.9836 63.1095 41.1707C63.3761 41.3578 63.6705 41.4514 63.9927 41.4514Z" fill="black"/>
</svg>
